<?xml version="1.0" encoding="UTF-8"?>
<svg xmlns="http://www.w3.org/2000/svg" xmlns:xlink="http://www.w3.org/1999/xlink" id="Layer_1" data-name="Layer 1" viewBox="0 0 952 201">
  <defs>
    <style>.cls-1{fill:url(#linear-gradient);}.cls-2{fill:url(#linear-gradient-2);}.cls-3{fill:url(#linear-gradient-3);}.cls-4{fill:url(#linear-gradient-4);}.cls-5{fill:url(#linear-gradient-5);}.cls-6{fill:url(#linear-gradient-6);}.cls-7{fill:url(#linear-gradient-7);}.cls-8{fill:url(#linear-gradient-8);}.cls-9{fill:url(#linear-gradient-9);}.cls-10{fill:url(#linear-gradient-10);}.cls-11{fill:url(#linear-gradient-11);}.cls-12{fill:url(#linear-gradient-12);}.cls-13{font-size:72px;fill:#7f4afc;font-family:OpenSans-ExtraBold, Open Sans;font-weight:800;letter-spacing:-0.02em;}</style>
    <linearGradient id="linear-gradient" x1="201.83" y1="111.35" x2="244.82" y2="111.35" gradientUnits="userSpaceOnUse">
      <stop offset="0" stop-color="#f7613b"></stop>
      <stop offset="0.21" stop-color="#cd597f"></stop>
      <stop offset="0.44" stop-color="#a351c2"></stop>
      <stop offset="0.61" stop-color="#894cec"></stop>
      <stop offset="0.7" stop-color="#7f4afc"></stop>
    </linearGradient>
    <linearGradient id="linear-gradient-2" x1="176.5" y1="134.75" x2="214.46" y2="134.75" xlink:href="#linear-gradient"></linearGradient>
    <linearGradient id="linear-gradient-3" x1="185.14" y1="75.86" x2="243.95" y2="75.86" xlink:href="#linear-gradient"></linearGradient>
    <linearGradient id="linear-gradient-4" x1="163.64" y1="66.54" x2="201.61" y2="66.54" xlink:href="#linear-gradient"></linearGradient>
    <linearGradient id="linear-gradient-5" x1="133.5" y1="90.12" x2="176.24" y2="90.12" xlink:href="#linear-gradient"></linearGradient>
    <linearGradient id="linear-gradient-6" x1="134.17" y1="125.58" x2="192.94" y2="125.58" xlink:href="#linear-gradient"></linearGradient>
    <linearGradient id="linear-gradient-7" x1="210.84" y1="55.76" x2="219.31" y2="55.76" xlink:href="#linear-gradient"></linearGradient>
    <linearGradient id="linear-gradient-8" x1="158.83" y1="55.75" x2="167.2" y2="55.75" xlink:href="#linear-gradient"></linearGradient>
    <linearGradient id="linear-gradient-9" x1="160.55" y1="145.62" x2="169.32" y2="145.62" xlink:href="#linear-gradient"></linearGradient>
    <linearGradient id="linear-gradient-10" x1="234.07" y1="100.69" x2="242.6" y2="100.69" xlink:href="#linear-gradient"></linearGradient>
    <linearGradient id="linear-gradient-11" x1="135.38" y1="100.65" x2="144.03" y2="100.65" xlink:href="#linear-gradient"></linearGradient>
    <linearGradient id="linear-gradient-12" x1="208.8" y1="145.61" x2="217.55" y2="145.61" xlink:href="#linear-gradient"></linearGradient>
  </defs>
  <path class="cls-1" d="M217.18,100.27c-6.35,3.14-10.74,2.68-13.6-1.19a8.71,8.71,0,0,1,11.54-12.63c4,2.37,5,6.5,3,12,3.31,3.89,6.46,7.77,9.84,11.45.67.72,2.2.89,3.33.9,5.72,0,9.85,2.7,12.15,7.75A13.36,13.36,0,1,1,223,113.69c1-.83,2.21-1.47,3.82-2.54Z"></path>
  <path class="cls-2" d="M198.85,138.78c1.65-4.91,3.16-9.42,4.4-13.1-2.22-2.69-4.47-4.57-5.6-7-2-4.14.43-9.07,4.63-10.81a8.68,8.68,0,0,1,11.3,4.25c2,4.35.52,10-3.94,11.24s-5.4,3.86-6.24,7.53c-.57,2.49-1.92,4.8-2.65,7.27a4.74,4.74,0,0,0,.3,3.3c2.81,4.93,3.16,9.85,0,14.69a12.64,12.64,0,0,1-13.15,6c-5.62-.8-9.32-4.16-11-9.7a13.35,13.35,0,0,1,19.16-15.26C196.83,137.56,197.51,138,198.85,138.78Z"></path>
  <path class="cls-3" d="M217.16,73.11l-14.63,3.08c.37,4.07-.49,7.2-3.53,9.47a8.68,8.68,0,0,1-11-13.41c3.41-3,9-3.13,11.86.32,1.73,2.06,3.16,2,5.41,1.34a64.53,64.53,0,0,1,10.21-2,3.92,3.92,0,0,0,3.35-2.39,12.85,12.85,0,0,1,12.94-6.9c5.14.41,8.81,3.22,11,7.86a13.3,13.3,0,0,1-17.1,17.81,12.76,12.76,0,0,1-8.37-11.94C217.29,75.52,217.24,74.73,217.16,73.11Z"></path>
  <path class="cls-4" d="M179.18,62.6c-1.48,4.64-2.94,9-4.18,13.39-.14.47.9,1.5,1.6,1.94,5.36,3.37,6.1,10,1.52,14.06a9.06,9.06,0,0,1-9.76,1.25,8.74,8.74,0,0,1-4.69-8.39c.29-3.56,2.7-6.9,6.19-7.56,2.68-.5,3.5-1.82,4.09-4.26.82-3.35,2.38-6.52,3.4-9.83a4.54,4.54,0,0,0-.29-3.29,13.42,13.42,0,0,1-.5-14c2.44-4.57,6.66-6.66,11.65-6.93,5.25-.28,10.47,3.49,12.45,8.61a13.05,13.05,0,0,1-3.42,14.65,13.33,13.33,0,0,1-15,2.13C181.42,63.92,180.6,63.4,179.18,62.6Z"></path>
  <path class="cls-5" d="M151,90.27c3.24,3.52,6.21,6.71,9.11,10,1.29,1.45,2.21.26,3.24-.28a8.77,8.77,0,0,1,12.15,4.26,8.5,8.5,0,0,1-5.15,11.48,8.29,8.29,0,0,1-8.92-2,7.71,7.71,0,0,1-2.16-8.59c.76-2,.22-3.17-1.17-4.61-2.67-2.76-5-5.83-7.63-8.64a3.84,3.84,0,0,0-2.76-1.22,13.35,13.35,0,0,1-14.21-12c-.55-7.89,5-14.18,12.39-14.56a13.46,13.46,0,0,1,13.63,9.52c1.69,6-.64,11.8-6.32,15.36C152.72,89.25,152.19,89.56,151,90.27Z"></path>
  <path class="cls-6" d="M147.76,112.48c7.49-.69,13.55,7,13,12.74-.22,2.27.51,3.11,2.92,2.47,3.18-.84,6.42-1.43,9.65-2,1.7-.32,2.23-1.11,2.21-2.9a8.61,8.61,0,0,1,7.33-8.61,8.72,8.72,0,0,1,9.54,5.74,8.49,8.49,0,0,1-3.92,10.34,8.24,8.24,0,0,1-10.84-1.88c-1.2-1.42-2.17-1.53-3.89-1.11-3.88,1-7.88,1.42-11.77,2.33a4.9,4.9,0,0,0-2.6,2.17c-3,5-7.26,7.45-13.16,7-5.15-.42-8.64-3.17-10.79-7.67C131,121.58,139.15,111.44,147.76,112.48Z"></path>
  <path class="cls-7" d="M215,51.36a4.44,4.44,0,0,1,4.32,4.47,4.2,4.2,0,0,1-4.07,4.33,4.08,4.08,0,0,1-4.4-4.22A4.3,4.3,0,0,1,215,51.36Z"></path>
  <path class="cls-8" d="M167.2,56a4,4,0,0,1-4.15,4.17,4.07,4.07,0,0,1-4.22-4.46,4.48,4.48,0,0,1,4.25-4.29A4.26,4.26,0,0,1,167.2,56Z"></path>
  <path class="cls-9" d="M169.32,145.65a4.23,4.23,0,0,1-4.44,4.27,4.69,4.69,0,0,1-4.33-4.32,4.58,4.58,0,0,1,4.36-4.27A4.2,4.2,0,0,1,169.32,145.65Z"></path>
  <path class="cls-10" d="M238.24,105a4.34,4.34,0,0,1,.16-8.68,4.21,4.21,0,0,1,4.19,4.55A4.14,4.14,0,0,1,238.24,105Z"></path>
  <path class="cls-11" d="M139.64,104.89a4.37,4.37,0,0,1-4.26-4.28,4.59,4.59,0,0,1,4.67-4.2,4.24,4.24,0,0,1,4,4.47A4.05,4.05,0,0,1,139.64,104.89Z"></path>
  <path class="cls-12" d="M213,149.94a4.16,4.16,0,0,1-4.24-4.43A4.09,4.09,0,0,1,213,141.3a4.33,4.33,0,1,1,0,8.64Z"></path>
  <text class="cls-13" transform="translate(263.98 127.23)">FP20 ANALYTICS</text>
</svg>
